<?xml version="1.0" encoding="UTF-8" standalone="no"?>
<!DOCTYPE svg PUBLIC "-//W3C//DTD SVG 1.1//EN" "http://www.w3.org/Graphics/SVG/1.1/DTD/svg11.dtd">
<svg width="100%" height="100%" viewBox="0 0 463 463" version="1.1" xmlns="http://www.w3.org/2000/svg" xmlns:xlink="http://www.w3.org/1999/xlink" xml:space="preserve" xmlns:serif="http://www.serif.com/" style="fill-rule:evenodd;clip-rule:evenodd;stroke-linejoin:round;stroke-miterlimit:2;">
    <path d="M375.16,200.014C369.319,200.014 363.49,200.595 357.766,201.753C353.449,180.21 339.494,161.833 319.9,151.886C300.31,141.939 277.239,141.522 257.298,150.751C239.253,101.044 184.328,75.379 134.621,93.425C84.913,111.47 59.249,166.399 77.294,216.102C33.752,217.478 -0.643,253.519 0.008,297.077C0.663,340.639 36.126,375.627 79.692,375.697L375.16,375.697C423.67,375.697 463.002,336.37 463.002,287.855C463.002,239.341 423.67,200.014 375.16,200.014Z" style="fill:rgb(35,152,190);fill-rule:nonzero;"/>
</svg>
