<?xml version="1.0" encoding="UTF-8" standalone="no"?><!DOCTYPE svg PUBLIC "-//W3C//DTD SVG 1.1//EN" "http://www.w3.org/Graphics/SVG/1.1/DTD/svg11.dtd"><svg width="100%" height="100%" viewBox="0 0 201 200" version="1.1" xmlns="http://www.w3.org/2000/svg" xmlns:xlink="http://www.w3.org/1999/xlink" xml:space="preserve" xmlns:serif="http://www.serif.com/" style="fill-rule:evenodd;clip-rule:evenodd;stroke-linejoin:round;stroke-miterlimit:2;"><rect id="bookmarks" x="0.95" y="0" width="200" height="200" style="fill:none;"/><g><path d="M156.164,12.023l-110.429,-0c-2.847,-0 -5.155,2.308 -5.155,5.155l-0,165.644c-0,2.085 1.256,3.965 3.182,4.763c0.638,0.264 1.308,0.392 1.972,0.392c1.341,0 2.659,-0.523 3.645,-1.51l51.571,-51.57l51.569,51.57c1.475,1.475 3.691,1.916 5.618,1.118c1.926,-0.798 3.182,-2.678 3.182,-4.763l0,-165.644c0,-2.847 -2.307,-5.155 -5.155,-5.155Z" style="fill:#34bfb9;fill-rule:nonzero;"/></g></svg>