<?xml version="1.0" encoding="UTF-8" standalone="no"?><!DOCTYPE svg PUBLIC "-//W3C//DTD SVG 1.1//EN" "http://www.w3.org/Graphics/SVG/1.1/DTD/svg11.dtd"><svg width="100%" height="100%" viewBox="0 0 200 200" version="1.1" xmlns="http://www.w3.org/2000/svg" xmlns:xlink="http://www.w3.org/1999/xlink" xml:space="preserve" xmlns:serif="http://www.serif.com/" style="fill-rule:evenodd;clip-rule:evenodd;stroke-linejoin:round;stroke-miterlimit:2;"><rect id="documents" x="0" y="0" width="200" height="200" style="fill:none;"/><path d="M49.231,186.646l101.538,0c8.399,0 15.231,-6.832 15.231,-15.231l0,-107.292l-35.538,0c-8.399,0 -15.231,-6.832 -15.231,-15.231l-0,-35.538l-66,-0c-8.399,-0 -15.231,6.832 -15.231,15.231l0,142.83c0,8.399 6.832,15.231 15.231,15.231Zm20.307,-101.877l60.924,0c2.806,0 5.076,2.271 5.076,5.077c0,2.806 -2.27,5.077 -5.076,5.077l-60.924,0c-2.806,0 -5.076,-2.271 -5.076,-5.077c-0,-2.806 2.27,-5.077 5.076,-5.077Zm0,20.308l60.924,-0c2.806,-0 5.076,2.271 5.076,5.077c0,2.806 -2.27,5.077 -5.076,5.077l-60.924,-0c-2.806,-0 -5.076,-2.271 -5.076,-5.077c-0,-2.806 2.27,-5.077 5.076,-5.077Zm0,20.308l60.924,-0c2.806,-0 5.076,2.27 5.076,5.077c0,2.806 -2.27,5.076 -5.076,5.076l-60.924,0c-2.806,0 -5.076,-2.27 -5.076,-5.076c-0,-2.807 2.27,-5.077 5.076,-5.077Zm0,20.307l40.616,0c2.806,0 5.077,2.271 5.077,5.077c-0,2.806 -2.271,5.077 -5.077,5.077l-40.616,0c-2.806,0 -5.076,-2.271 -5.076,-5.077c-0,-2.806 2.27,-5.077 5.076,-5.077Z" style="fill:#808080;fill-rule:nonzero;"/><path d="M130.462,53.969l32.563,0l-37.64,-37.64l-0,32.563c-0,2.801 2.275,5.077 5.077,5.077Z" style="fill:#808080;fill-rule:nonzero;stroke:#000;stroke-opacity:0;stroke-width:1px;"/></svg>