<?xml version="1.0" encoding="UTF-8" standalone="no"?><!DOCTYPE svg PUBLIC "-//W3C//DTD SVG 1.1//EN" "http://www.w3.org/Graphics/SVG/1.1/DTD/svg11.dtd"><svg width="100%" height="100%" viewBox="0 0 200 200" version="1.1" xmlns="http://www.w3.org/2000/svg" xmlns:xlink="http://www.w3.org/1999/xlink" xml:space="preserve" xmlns:serif="http://www.serif.com/" style="fill-rule:evenodd;clip-rule:evenodd;stroke-linejoin:round;stroke-miterlimit:2;"><rect id="logo" x="0" y="0" width="200" height="200" style="fill:none;"/><path d="M83.175,45.309c6.446,-6.717 15.42,-10.882 25.345,-10.882c13.194,-0 24.705,7.357 30.835,18.279c5.327,-2.381 11.224,-3.705 17.428,-3.705c23.797,0 43.089,19.461 43.089,43.465c0,24.008 -19.292,43.468 -43.089,43.468c-2.904,0 -5.743,-0.29 -8.488,-0.845c-5.398,9.629 -15.685,16.135 -27.492,16.135c-4.943,-0 -9.618,-1.142 -13.78,-3.172c-5.473,12.872 -18.222,21.898 -33.082,21.898c-15.474,-0 -28.662,-9.792 -33.725,-23.524c-2.212,0.47 -4.504,0.715 -6.856,0.715c-18.424,-0 -33.36,-15.09 -33.36,-33.708c0,-12.476 6.711,-23.37 16.682,-29.198c-2.053,-4.723 -3.195,-9.936 -3.195,-15.417c0,-21.411 17.382,-38.768 38.821,-38.768c12.588,0 23.774,5.985 30.867,15.259" style="fill:#00a1e0;fill-rule:nonzero;"/></svg>