<?xml version="1.0" encoding="UTF-8" standalone="no"?><!DOCTYPE svg PUBLIC "-//W3C//DTD SVG 1.1//EN" "http://www.w3.org/Graphics/SVG/1.1/DTD/svg11.dtd"><svg width="100%" height="100%" viewBox="0 0 201 200" version="1.1" xmlns="http://www.w3.org/2000/svg" xmlns:xlink="http://www.w3.org/1999/xlink" xml:space="preserve" xmlns:serif="http://www.serif.com/" style="fill-rule:evenodd;clip-rule:evenodd;stroke-linejoin:round;stroke-miterlimit:2;"><rect id="research" x="0.95" y="0" width="200" height="200" style="fill:none;"/><path d="M37.924,186.093l43.395,-42.006c3.114,-3.012 4.36,-6.777 2.768,-8.408c-1.58,-1.637 -0.337,-5.404 2.777,-8.416l0.623,-0.601c24.726,18.801 60.129,16.976 82.706,-5.6c24.64,-24.64 24.64,-64.591 -0,-89.228c-24.64,-24.64 -64.585,-24.64 -89.225,-0c-22.964,22.961 -24.502,59.201 -4.669,83.978l-0.275,0.264c-3.113,3.006 -6.917,4.126 -8.5,2.484c-1.584,-1.634 -5.39,-0.522 -8.498,2.493l-43.412,41.984c-3.105,3.012 -3.198,7.975 -0.183,11.091l11.4,11.783c3.008,3.104 7.968,3.189 11.093,0.182Zm56.91,-78.897c-16.959,-16.956 -16.959,-44.549 -0.006,-61.502c16.956,-16.956 44.552,-16.954 61.505,-0c16.957,16.953 16.954,44.546 -0.002,61.497c-16.954,16.959 -44.544,16.959 -61.497,0.005Z" style="fill:#34bfb9;fill-rule:nonzero;"/></svg>