<?xml version="1.0" encoding="UTF-8" standalone="no"?><!DOCTYPE svg PUBLIC "-//W3C//DTD SVG 1.1//EN" "http://www.w3.org/Graphics/SVG/1.1/DTD/svg11.dtd"><svg width="100%" height="100%" viewBox="0 0 200 200" version="1.1" xmlns="http://www.w3.org/2000/svg" xmlns:xlink="http://www.w3.org/1999/xlink" xml:space="preserve" xmlns:serif="http://www.serif.com/" style="fill-rule:evenodd;clip-rule:evenodd;stroke-linejoin:round;stroke-miterlimit:2;"><rect id="tags" x="0" y="0" width="200" height="200" style="fill:none;"/><g><path d="M183.517,10.058l-70.667,-0c-1.704,-0 -3.338,0.677 -4.542,1.882l-96.365,96.364c-2.51,2.508 -2.512,6.575 -0.005,9.086l70.672,70.672c2.509,2.507 6.576,2.507 9.084,-0l96.364,-96.365c1.207,-1.206 1.884,-2.842 1.883,-4.548l-0,-70.667c-0,-3.548 -2.876,-6.424 -6.424,-6.424Zm-38.546,57.818c-7.096,0 -12.849,-5.752 -12.849,-12.848c0,-7.096 5.753,-12.849 12.849,-12.849c7.096,0 12.848,5.753 12.848,12.849c0,7.096 -5.752,12.848 -12.848,12.848Z" style="fill:#eb7092;fill-rule:nonzero;"/></g></svg>