<?xml version="1.0" encoding="UTF-8" standalone="no"?><!DOCTYPE svg PUBLIC "-//W3C//DTD SVG 1.1//EN" "http://www.w3.org/Graphics/SVG/1.1/DTD/svg11.dtd"><svg width="100%" height="100%" viewBox="0 0 201 200" version="1.1" xmlns="http://www.w3.org/2000/svg" xmlns:xlink="http://www.w3.org/1999/xlink" xml:space="preserve" xmlns:serif="http://www.serif.com/" style="fill-rule:evenodd;clip-rule:evenodd;stroke-linejoin:round;stroke-miterlimit:2;"><rect id="tools" x="0.95" y="0" width="200" height="200" style="fill:none;"/><path id="XMLID_680_" d="M190.163,56.908c-2.422,-1.069 -5.25,-0.539 -7.118,1.331l-18.959,18.951l-34.587,-6.116l-6.118,-34.588l18.96,-18.951c1.867,-1.87 2.397,-4.695 1.33,-7.117c-1.066,-2.418 -3.518,-3.937 -6.155,-3.811c-12.921,0.603 -25.657,5.819 -35.528,15.693c-15.158,15.152 -19.348,37.051 -12.706,56.001l-74.372,74.389c-9.317,9.311 -9.317,24.413 -0,33.726c4.467,4.471 10.531,6.984 16.858,6.984c6.322,0 12.391,-2.513 16.858,-6.981l74.742,-74.742c18.696,6.097 40.053,1.769 54.902,-13.09c9.872,-9.869 15.09,-22.602 15.701,-35.52c0.116,-2.64 -1.387,-5.087 -3.808,-6.159Zm-146.811,115.284c-3.925,3.925 -10.296,3.925 -14.221,-0c-3.932,-3.931 -3.932,-10.296 0,-14.228c3.925,-3.924 10.296,-3.924 14.221,0c3.926,3.932 3.926,10.297 0,14.228Z" style="fill:#5f8ee7;fill-rule:nonzero;"/></svg>